<?xml version="1.0" encoding="utf-8"?><!-- Uploaded to: SVG Repo, www.svgrepo.com, Generator: SVG Repo Mixer Tools -->
<svg width="800px" height="800px" viewBox="0 0 24 24" fill="none" xmlns="http://www.w3.org/2000/svg">
<path d="M17.66 22H6.33999C5.24465 22 4.19417 21.5649 3.41964 20.7903C2.64512 20.0158 2.20999 18.9653 2.20999 17.87V6.52999C2.20999 5.43465 2.64512 4.38417 3.41964 3.60964C4.19417 2.83512 5.24465 2.39999 6.33999 2.39999H17.66C18.7553 2.39999 19.8058 2.83512 20.5803 3.60964C21.3549 4.38417 21.79 5.43465 21.79 6.52999V17.85C21.7926 18.394 21.6877 18.9332 21.4814 19.4366C21.275 19.94 20.9712 20.3977 20.5874 20.7833C20.2037 21.1689 19.7475 21.4749 19.2451 21.6837C18.7427 21.8925 18.204 22 17.66 22ZM6.33999 3.89999C5.64247 3.89999 4.97352 4.17708 4.4803 4.6703C3.98708 5.16352 3.70999 5.83247 3.70999 6.52999V17.85C3.70999 18.5475 3.98708 19.2165 4.4803 19.7097C4.97352 20.2029 5.64247 20.48 6.33999 20.48H17.66C18.3575 20.48 19.0265 20.2029 19.5197 19.7097C20.0129 19.2165 20.29 18.5475 20.29 17.85V6.52999C20.29 6.18462 20.222 5.84262 20.0898 5.52354C19.9576 5.20445 19.7639 4.91452 19.5197 4.6703C19.2755 4.42608 18.9855 4.23236 18.6665 4.10019C18.3474 3.96802 18.0054 3.89999 17.66 3.89999H6.33999Z" fill="rgb(73, 106, 175)"/>
<path d="M18.13 12.14C17.9319 12.1374 17.7426 12.0576 17.6025 11.9175C17.4624 11.7774 17.3826 11.5881 17.38 11.39C17.3502 11.0378 17.1893 10.7097 16.9291 10.4705C16.6689 10.2314 16.3284 10.0986 15.975 10.0986C15.6216 10.0986 15.281 10.2314 15.0208 10.4705C14.7606 10.7097 14.5997 11.0378 14.57 11.39C14.57 11.5889 14.491 11.7797 14.3503 11.9203C14.2097 12.061 14.0189 12.14 13.82 12.14C13.6211 12.14 13.4303 12.061 13.2896 11.9203C13.149 11.7797 13.07 11.5889 13.07 11.39C13.1135 10.649 13.4385 9.95265 13.9785 9.4434C14.5185 8.93415 15.2327 8.65051 15.975 8.65051C16.7172 8.65051 17.4314 8.93415 17.9715 9.4434C18.5115 9.95265 18.8365 10.649 18.88 11.39C18.8774 11.5881 18.7975 11.7774 18.6574 11.9175C18.5173 12.0576 18.3281 12.1374 18.13 12.14Z" fill="rgb(73, 106, 175)"/>
<path d="M10.34 12.14C10.1419 12.1374 9.95261 12.0576 9.81251 11.9175C9.67242 11.7774 9.59257 11.5881 9.58998 11.39C9.58998 11.0187 9.44248 10.6626 9.17993 10.4C8.91738 10.1375 8.56128 9.98999 8.18998 9.98999C7.81867 9.98999 7.46258 10.1375 7.20003 10.4C6.93748 10.6626 6.78998 11.0187 6.78998 11.39C6.78998 11.5889 6.71096 11.7797 6.57031 11.9203C6.42966 12.061 6.23889 12.14 6.03998 12.14C5.84107 12.14 5.6503 12.061 5.50965 11.9203C5.369 11.7797 5.28998 11.5889 5.28998 11.39C5.28998 10.6209 5.59551 9.88324 6.13937 9.33938C6.68322 8.79553 7.42085 8.48999 8.18998 8.48999C8.95911 8.48999 9.69673 8.79553 10.2406 9.33938C10.7844 9.88324 11.09 10.6209 11.09 11.39C11.09 11.5889 11.011 11.7797 10.8703 11.9203C10.7297 12.061 10.5389 12.14 10.34 12.14Z" fill="rgb(73, 106, 175)"/>
<path d="M16 17.62H8.19C7.99109 17.62 7.80032 17.541 7.65967 17.4003C7.51902 17.2597 7.44 17.0689 7.44 16.87C7.44 16.6711 7.51902 16.4803 7.65967 16.3397C7.80032 16.199 7.99109 16.12 8.19 16.12H16C16.1989 16.12 16.3897 16.199 16.5303 16.3397C16.671 16.4803 16.75 16.6711 16.75 16.87C16.75 17.0689 16.671 17.2597 16.5303 17.4003C16.3897 17.541 16.1989 17.62 16 17.62Z" fill="rgb(73, 106, 175)"/>
</svg>