<?xml version="1.0" encoding="utf-8"?><!-- Uploaded to: SVG Repo, www.svgrepo.com, Generator: SVG Repo Mixer Tools -->
<svg width="800px" height="800px" viewBox="0 0 24 24" fill="none" xmlns="http://www.w3.org/2000/svg">
<path d="M6 22C5.00797 21.9974 4.05718 21.6028 3.35478 20.9023C2.65237 20.2018 2.25527 19.252 2.25 18.26V9.26C2.25264 8.26625 2.64858 7.31396 3.35127 6.61127C4.05396 5.90858 5.00625 5.51264 6 5.51H7C7.18271 5.5312 7.35127 5.61881 7.47361 5.75617C7.59595 5.89353 7.66354 6.07106 7.66354 6.255C7.66354 6.43894 7.59595 6.61647 7.47361 6.75383C7.35127 6.89119 7.18271 6.9788 7 7H6C5.70162 6.99731 5.40571 7.05426 5.12964 7.16751C4.85357 7.28076 4.60292 7.44803 4.39239 7.65949C4.18186 7.87095 4.0157 8.12234 3.90367 8.39891C3.79164 8.67547 3.73599 8.97163 3.74 9.27V18.27C3.73999 18.5659 3.79858 18.8588 3.9124 19.1319C4.02622 19.4049 4.19301 19.6528 4.40314 19.861C4.61326 20.0693 4.86256 20.2339 5.13665 20.3453C5.41073 20.4567 5.70416 20.5126 6 20.51H18C18.295 20.51 18.5871 20.4517 18.8595 20.3385C19.132 20.2253 19.3793 20.0595 19.5875 19.8504C19.7956 19.6413 19.9604 19.3932 20.0724 19.1203C20.1843 18.8474 20.2413 18.555 20.24 18.26V9.26C20.2413 8.96453 20.1844 8.67168 20.0726 8.3982C19.9607 8.12471 19.7961 7.87594 19.5881 7.66607C19.3801 7.45621 19.1328 7.28938 18.8603 7.17509C18.5878 7.06081 18.2955 7.00131 18 7H17C16.8028 7.00002 16.6135 6.92237 16.4732 6.78388C16.3328 6.64538 16.2526 6.45717 16.25 6.26C16.2473 6.15936 16.2647 6.0592 16.3011 5.96533C16.3375 5.87145 16.3921 5.78574 16.4619 5.71317C16.5317 5.64061 16.6152 5.58262 16.7076 5.54259C16.7999 5.50257 16.8993 5.48129 17 5.48H18C18.992 5.48262 19.9428 5.87719 20.6452 6.57772C21.3476 7.27825 21.7447 8.22799 21.75 9.22V18.22C21.7553 18.7153 21.6621 19.2068 21.4759 19.6658C21.2897 20.1249 21.0142 20.5424 20.6653 20.894C20.3164 21.2457 19.9012 21.5246 19.4436 21.7144C18.9861 21.9043 18.4954 22.0014 18 22H6Z" fill="rgb(73, 106, 175)"/>
<path d="M10 7C9.80109 7 9.61032 6.92098 9.46967 6.78033C9.32902 6.63968 9.25 6.44891 9.25 6.25C9.25 6.05109 9.32902 5.86032 9.46967 5.71967C9.61032 5.57902 9.80109 5.5 10 5.5H14C14.1989 5.5 14.3897 5.57902 14.5303 5.71967C14.671 5.86032 14.75 6.05109 14.75 6.25C14.75 6.44891 14.671 6.63968 14.5303 6.78033C14.3897 6.92098 14.1989 7 14 7H10Z" fill="rgb(73, 106, 175)"/>
<path d="M8.48001 8.51C7.88327 8.51 7.31098 8.27295 6.88902 7.85099C6.46706 7.42903 6.23001 6.85674 6.23001 6.26V4.26C6.22737 3.96416 6.28336 3.67073 6.39474 3.39665C6.50613 3.12256 6.67071 2.87326 6.87898 2.66314C7.08724 2.45301 7.33507 2.28622 7.60815 2.1724C7.88123 2.05858 8.17416 1.99999 8.47001 2C9.06422 2.00261 9.63349 2.23913 10.0546 2.65836C10.4757 3.0776 10.7148 3.64581 10.72 4.24V6.24C10.7216 6.53476 10.665 6.82694 10.5535 7.09978C10.4419 7.37263 10.2776 7.62077 10.07 7.83C9.64824 8.25299 9.07731 8.49357 8.48001 8.5V8.51ZM8.48001 3.51C8.38198 3.50999 8.28493 3.52946 8.19449 3.56727C8.10406 3.60508 8.02203 3.66049 7.95318 3.73026C7.88433 3.80004 7.83004 3.8828 7.79344 3.97374C7.75685 4.06468 7.73868 4.16198 7.74001 4.26V6.26C7.74524 6.36134 7.77098 6.46056 7.81567 6.55166C7.86036 6.64276 7.92307 6.72384 8.00001 6.79C8.12679 6.9195 8.29886 6.99477 8.48001 7C8.67983 6.99737 8.87058 6.91614 9.01096 6.7739C9.15133 6.63165 9.23003 6.43984 9.23001 6.24V4.24C9.2248 4.04457 9.14348 3.85891 9.00339 3.72255C8.8633 3.5862 8.6755 3.50993 8.48001 3.51Z" fill="rgb(73, 106, 175)"/>
<path d="M15.48 8.49C15.1844 8.4914 14.8915 8.43373 14.6184 8.3204C14.3454 8.20706 14.0977 8.04034 13.89 7.83C13.4679 7.40845 13.2305 6.83654 13.23 6.24V4.24C13.23 3.64591 13.466 3.07616 13.8861 2.65608C14.3062 2.236 14.8759 2 15.47 2C16.0642 2.00261 16.6335 2.23913 17.0546 2.65836C17.4757 3.0776 17.7148 3.64581 17.72 4.24V6.24C17.7213 6.53547 17.6644 6.82832 17.5526 7.1018C17.4407 7.37529 17.2761 7.62406 17.0681 7.83393C16.8601 8.04379 16.6128 8.21062 16.3403 8.32491C16.0678 8.43919 15.7755 8.49869 15.48 8.5V8.49ZM15.48 3.49C15.2828 3.49263 15.0946 3.57281 14.9561 3.71317C14.8176 3.85354 14.74 4.04281 14.74 4.24V6.24C14.74 6.43891 14.819 6.62968 14.9597 6.77033C15.1003 6.91098 15.2911 6.99 15.49 6.99C15.5885 6.99 15.686 6.9706 15.777 6.93291C15.868 6.89522 15.9507 6.83997 16.0203 6.77033C16.09 6.70069 16.1452 6.61801 16.1829 6.52701C16.2206 6.43602 16.24 6.33849 16.24 6.24V4.24C16.24 4.14066 16.2203 4.04231 16.182 3.95066C16.1437 3.85901 16.0875 3.77588 16.0168 3.7061C15.9461 3.63633 15.8622 3.58129 15.7701 3.54419C15.6779 3.5071 15.5793 3.48868 15.48 3.49Z" fill="rgb(73, 106, 175)"/>
<path d="M3 12C2.80109 12 2.61032 11.921 2.46967 11.7803C2.32902 11.6397 2.25 11.4489 2.25 11.25C2.25 11.0511 2.32902 10.8603 2.46967 10.7197C2.61032 10.579 2.80109 10.5 3 10.5H21C21.1989 10.5 21.3897 10.579 21.5303 10.7197C21.671 10.8603 21.75 11.0511 21.75 11.25C21.7528 11.3492 21.7352 11.448 21.6985 11.5402C21.6618 11.6325 21.6067 11.7163 21.5365 11.7865C21.4663 11.8567 21.3825 11.9118 21.2902 11.9485C21.198 11.9852 21.0992 12.0028 21 12H3Z" fill="rgb(73, 106, 175)"/>
</svg>